<?xml version="1.0" encoding="UTF-8"?>
<svg width="615px" height="589px" viewBox="0 0 615 589" version="1.1" xmlns="http://www.w3.org/2000/svg" xmlns:xlink="http://www.w3.org/1999/xlink">
    <title>Group 67</title>
    <defs>
        <polygon id="path-1" points="0.453244848 0.690238371 66.2987036 0.690238371 66.2987036 54.2281651 0.453244848 54.2281651"></polygon>
        <polygon id="path-3" points="0.941578075 0.241626321 30.2376212 0.241626321 30.2376212 45.8000026 0.941578075 45.8000026"></polygon>
    </defs>
    <g id="Page-1" stroke="none" stroke-width="1" fill="none" fill-rule="evenodd">
        <g id="MrBeast---Desktop" transform="translate(-535.000000, -168.000000)">
            <g id="Group-67" transform="translate(535.000000, 168.000000)">
                <path d="M193.418431,59.6892433 C194.276431,59.8894433 194.604031,60.4185433 194.403831,61.2778434 C192.626731,68.8802438 188.02733,75.8222442 180.68753,80.3800444 C165.556829,89.7751449 145.984028,85.2602447 136.540828,70.0541439 C127.052127,54.771343 131.689227,35.2258419 146.821228,25.8307414 C154.159728,21.2755412 162.421229,20.2329411 170.026229,22.0126412 C170.884229,22.2128412 171.211829,22.7419413 171.011629,23.5999413 L169.352829,32.0720418 C169.229329,32.8845418 168.623529,33.2602418 167.812329,33.1341418 C162.895729,32.3086418 157.881629,33.0106418 153.039128,36.016242 C143.810428,41.7466423 141.103828,53.5961429 147.209928,63.4306435 C153.267928,73.189744 165.087529,76.0198442 174.31883,70.2881439 C179.16003,67.2825437 182.01353,63.0991435 183.45263,58.3281432 C183.70093,57.5455432 184.30543,57.1698431 185.08933,57.4168432 L193.418431,59.6892433 Z" id="Fill-1" fill="#FFFFFF"></path>
                <path d="M227.554873,12.6759107 L241.424573,51.2183128 C241.696273,51.9736129 241.373873,52.6561129 240.619873,52.9278129 L232.407773,55.8827131 C231.653773,56.1531131 231.054473,55.8021131 230.699573,55.078013 L228.706673,50.5904128 C227.305273,55.6370131 224.169672,60.0778133 218.974872,61.9459134 C209.759172,65.2635136 201.098571,61.1867134 197.149171,50.2108128 L188.67707,26.6665115 C188.40667,25.9125114 188.72777,25.2274114 189.48177,24.9570114 L198.027971,21.8812112 C198.781971,21.6095112 199.467071,21.9319112 199.737471,22.6859112 L207.485471,44.2204124 C209.928172,51.0064128 214.710872,51.9346129 218.648572,50.5176128 C224.598672,48.3778127 225.721872,42.2951123 224.666272,39.3623122 L216.494472,16.6565109 C216.224072,15.9012109 216.545172,15.2174108 217.299172,14.9457108 L225.846672,11.8712107 C226.600672,11.5995106 227.284473,11.9219107 227.554873,12.6759107" id="Fill-3" fill="#FFFFFF"></path>
                <path d="M269.481045,5.89160032 L268.071845,12.8609007 C267.902845,13.8892008 267.235945,14.1973008 266.311645,14.0972008 C265.387345,14.0010008 264.270645,13.8476008 262.607944,14.1596008 C257.181744,15.1801008 254.437444,19.8640011 255.424144,25.1147014 L259.699844,47.8699026 C259.848044,48.6564027 259.421644,49.2804027 258.633844,49.4286027 L249.706744,51.1056028 C248.920244,51.2551028 248.294944,50.8274028 248.148044,50.0396028 L240.583343,9.78120054 C240.433843,8.99470049 240.860243,8.36940046 241.649343,8.22250045 L250.138344,6.62610036 C250.926144,6.47790036 251.461744,6.92250038 251.697044,7.69340042 L252.935944,12.3539007 C254.438744,7.81300043 257.396244,4.26660023 262.559844,3.29680018 C265.010345,2.83530016 267.291845,3.40340019 268.714045,4.22370023 C269.512245,4.61760025 269.627945,5.22990029 269.481045,5.89160032" id="Fill-5" fill="#FFFFFF"></path>
                <path d="M306.849807,3.47815019 L304.557907,10.2108506 C304.258907,11.2079506 303.556907,11.4263506 302.652107,11.2105506 C301.748607,10.9947506 300.660507,10.7009506 298.971806,10.7971506 C293.459806,11.1117506 290.137006,15.4043508 290.441206,20.7382511 L291.762006,43.8548524 C291.807506,44.6556525 291.304406,45.2185525 290.504906,45.2653525 L281.436105,45.7827525 C280.635305,45.8282525 280.071105,45.3251525 280.025605,44.5243524 L277.689505,3.6263502 C277.644005,2.82685016 278.147105,2.26265012 278.947905,2.21715012 L287.572106,1.72445009 C288.371606,1.67895009 288.846106,2.18725012 288.981306,2.98155016 L289.610506,7.76295043 C291.685306,3.45215019 295.071806,0.315250017 300.318607,0.0162500009 C302.808107,-0.125450007 304.997307,0.72995004 306.302507,1.72445009 C307.044807,2.21845012 307.081207,2.84115016 306.849807,3.47815019" id="Fill-7" fill="#FFFFFF"></path>
                <path d="M322.546268,19.5999711 L343.299469,21.4940712 C342.947169,15.5595709 339.070569,11.9858707 333.926468,11.5165706 C328.604268,11.0303706 324.143968,13.8435708 322.546268,19.5999711 M349.876169,29.7841716 L322.028868,27.2426715 C322.759468,32.9444718 326.903868,36.540272 333.643068,37.156472 C337.102369,37.4723721 339.932469,36.835372 343.142169,34.9828719 C343.988469,34.5226719 344.520169,34.5733719 345.085669,35.2493719 L348.638569,39.4197722 C349.204069,40.0970722 349.146869,40.7171722 348.372069,41.3619723 C343.823369,45.1501725 337.921369,47.1157726 331.624168,46.5411726 C318.054767,45.3022725 309.656767,34.4303719 310.798167,21.9256712 C311.939567,9.42097052 322.157568,0.337870019 334.751968,1.48577008 C347.345069,2.63627015 354.51067,13.3053707 353.457669,24.8350714 C353.141769,28.2930716 352.535969,30.0272717 349.876169,29.7841716" id="Fill-9" fill="#FFFFFF"></path>
                <path d="M403.071262,34.8926519 L396.224162,58.7723532 C396.003162,59.5432533 395.344062,59.9098533 394.573162,59.6888533 L385.842361,57.1850531 C385.071461,56.9653531 384.704861,56.3049531 384.925861,55.5340531 L391.182762,33.7070519 C393.171762,26.7741515 390.092061,23.2979513 385.982761,22.1201512 C379.649161,20.3040511 374.947061,25.7185514 374.384161,27.6867515 L367.80746,50.6265528 C367.58646,51.3961528 366.92476,51.7627528 366.15646,51.5417528 L357.42566,49.0392527 C356.65476,48.8182527 356.28816,48.1565526 356.50916,47.3869526 L367.79576,8.01385044 C368.01676,7.2429504 368.67846,6.87635038 369.44806,7.09735039 L377.836961,9.50235052 C378.607861,9.72335053 378.887361,10.3603506 378.752161,11.1546506 L377.524961,16.7303509 L377.500261,16.8174509 C381.514661,13.1501507 386.922661,11.0883506 393.000162,12.8303507 C401.559362,15.2847508 406.286162,23.6788513 403.071262,34.8926519" id="Fill-11" fill="#FFFFFF"></path>
                <path d="M441.888484,34.9828719 L438.986884,41.2930723 C438.651484,42.0197723 437.942984,42.2823723 437.213684,41.9482723 L430.743584,38.9699721 L417.085783,68.6580738 C416.750383,69.3860738 416.041883,69.6486738 415.315183,69.3132738 L407.062782,65.5185736 C406.334782,65.1831736 406.072182,64.4759735 406.407582,63.7466735 L420.065383,34.0585719 L413.592683,31.0815717 C412.865983,30.7461717 412.603383,30.0376717 412.937483,29.3096716 L415.841683,22.9994713 C416.175783,22.2727712 416.885583,22.0101712 417.612283,22.3442712 L424.084983,25.3225714 L429.108184,14.4025708 C429.443584,13.6732708 430.152084,13.4119707 430.878784,13.7473708 L439.131184,17.542071 C439.857884,17.877471 440.120484,18.585971 439.786384,19.3126711 L434.761884,30.2339717 L441.233284,33.2122718 C441.961284,33.5476718 442.223884,34.2548719 441.888484,34.9828719" id="Fill-13" fill="#FFFFFF"></path>
                <path d="M478.271976,111.628276 L470.198976,105.182876 C469.642576,104.738276 469.461876,104.252076 469.502176,103.486376 L471.003676,88.6195749 L456.837575,93.3749751 C456.100475,93.5829751 455.586975,93.5140751 455.029275,93.0707751 L446.957575,86.6253748 C446.122975,85.9584747 446.219175,85.1225747 447.261775,84.8170747 L471.341676,77.4928743 L473.044676,53.669073 C473.112276,52.5848729 473.905276,52.3053729 474.739876,52.9722729 L482.811577,59.4176733 C483.367977,59.8622733 483.549977,60.3497733 483.508377,61.1141734 L482.116077,74.7017741 L495.060177,70.3363739 C495.795977,70.1270739 496.310777,70.1959739 496.868477,70.6405739 L504.940178,77.0872742 C505.774778,77.7515743 505.678578,78.5874743 504.635978,78.8942743 L481.779377,85.8271747 L479.967176,110.930176 C479.898276,112.015676 479.106576,112.295176 478.271976,111.628276" id="Fill-15" fill="#FFFFFF"></path>
                <path d="M585.833072,153.452918 L535.728469,185.84242 C535.055069,186.27662 534.316669,186.11802 533.881169,185.44462 L528.709769,177.44312 C528.274269,176.77102 528.432869,176.03132 529.104969,175.59582 L561.263071,154.810119 L557.343571,155.965819 L520.807069,163.252319 C520.064769,163.414819 519.427769,163.084619 519.040369,162.486619 L514.448768,155.380819 C514.061368,154.784119 514.022368,154.067818 514.474768,153.456818 L536.074269,123.058917 L538.80947,119.911617 L506.578568,140.748018 C505.906468,141.183518 505.166768,141.022318 504.731268,140.350218 L499.559867,132.350017 C499.124367,131.676617 499.282967,130.938217 499.955068,130.502717 L550.05967,98.1132154 C550.73307,97.6790154 551.47147,97.8363154 551.90697,98.5097154 L557.707571,107.484916 C558.094971,108.082916 558.209371,108.751116 557.831071,109.312716 L528.461469,151.307918 L578.763672,141.694418 C579.430572,141.581318 579.993472,141.959618 580.380872,142.556318 L586.229572,151.605618 C586.665072,152.279018 586.506472,153.017418 585.833072,153.452918" id="Fill-17" fill="#FFFFFF"></path>
                <path d="M584.290622,206.330161 L577.182222,206.179361 C576.139622,206.194961 575.719722,205.594361 575.652122,204.666161 C575.585822,203.737961 575.539022,202.613461 574.935822,201.031361 C572.970222,195.872961 567.874221,194.003561 562.880921,195.904161 L541.24632,204.146161 C540.49622,204.430861 539.80722,204.121461 539.52122,203.373961 L536.28942,194.884961 C536.003419,194.136161 536.31282,193.447161 537.06162,193.162461 L575.340122,178.58036 C576.088922,178.29566 576.779222,178.60376 577.063922,179.35256 L580.139722,187.42426 C580.423122,188.17306 580.083822,188.78016 579.366222,189.14806 L574.999522,191.191661 C579.734122,191.867661 583.748522,194.149161 585.617922,199.057961 C586.505822,201.388861 586.351122,203.735361 585.796022,205.279761 C585.551622,206.136461 584.967922,206.357461 584.290622,206.330161" id="Fill-19" fill="#FFFFFF"></path>
                <g id="Group-23" transform="translate(547.300030, 211.390412)">
                    <mask id="mask-2" fill="white">
                        <use xlink:href="#path-1"></use>
                    </mask>
                    <g id="Clip-22"></g>
                    <path d="M54.962053,23.5245413 L53.1680529,14.5311408 L39.6337522,17.2299409 L41.4277523,26.2246414 C42.4027523,31.1139417 45.2991525,33.8049419 50.1897528,32.8299418 C54.819053,31.9069418 55.9201531,28.3280416 54.962053,23.5245413 M25.6860514,41.5321423 C31.1876517,40.4336422 33.1272518,36.052642 31.8571518,29.6761416 L29.7667516,19.1981411 L13.1748507,22.5079412 L15.2665508,32.9859418 C16.5366509,39.3611422 19.9231511,42.6800423 25.6860514,41.5321423 M26.7624515,53.754743 C15.2353508,56.0531431 7.67845042,50.0250428 4.62995025,34.7448419 L0.485550027,13.9630408 C0.329550018,13.1765407 0.748150041,12.5486407 1.53335008,12.3913407 L60.0372533,0.72254004 C60.8237533,0.566540031 61.4529534,0.985140054 61.6089534,1.7716401 L65.7546536,22.5521412 C68.1752538,34.6915419 62.2160534,42.1431423 53.920753,43.7993424 C47.5468526,45.0694425 42.0829523,42.7099423 39.4478522,38.6045421 C39.0773522,45.3970425 34.7093519,52.1700429 26.7624515,53.754743" id="Fill-21" fill="#FFFFFF" mask="url(#mask-2)"></path>
                </g>
                <path d="M581.765502,282.664606 L582.103502,303.501007 C587.966502,302.515607 591.104703,298.277606 591.020203,293.112706 C590.933103,287.771006 587.659702,283.637006 581.765502,282.664606 M574.564802,310.926607 L574.109802,282.966206 C568.521101,284.305206 565.386801,288.809706 565.497301,295.577506 C565.553201,299.049806 566.489201,301.796707 568.675801,304.788007 C569.223101,305.581007 569.230901,306.115307 568.618601,306.748407 L564.852501,310.729007 C564.240201,311.362107 563.616201,311.372507 562.892101,310.671807 C558.639801,306.554707 556.054101,300.895807 555.951401,294.573906 C555.729101,280.951205 565.639001,271.436505 578.194402,271.232405 C590.749803,271.028305 600.874203,280.216705 601.079603,292.860506 C601.286303,305.504307 591.444003,313.771007 579.868802,313.958207 C576.396502,314.014107 574.607702,313.598107 574.564802,310.926607" id="Fill-24" fill="#FFFFFF"></path>
                <path d="M571.785661,354.70801 C578.260962,355.92481 584.438562,352.464209 585.655362,345.988909 C586.856562,339.599409 582.826562,334.040608 575.913162,332.741908 C569.261061,331.491308 563.487761,335.208008 562.287861,341.597509 C561.071061,348.072809 565.220661,353.474309 571.785661,354.70801 M589.759462,369.95571 L549.50106,362.39101 C548.71456,362.24281 548.28816,361.61881 548.43506,360.83231 L549.86636,353.218209 C550.01456,352.430409 550.62166,352.089809 551.42636,352.150909 L555.725461,352.414809 C552.66266,348.939909 550.93106,344.175409 552.03346,338.311109 C554.30196,326.235408 565.661361,319.309008 577.913862,321.610008 C590.428962,323.961708 598.674863,334.571008 596.403763,346.649309 C595.319563,352.425209 591.887563,356.21991 587.390862,358.45591 L591.684763,359.71561 C592.454363,359.95091 592.897663,360.48651 592.750763,361.27561 L591.319463,368.88841 C591.171263,369.67751 590.548562,370.10261 589.759462,369.95571" id="Fill-26" fill="#FFFFFF"></path>
                <path d="M546.30878,402.311542 C538.39438,399.326742 536.85908,389.515641 539.68788,382.018541 C542.32688,375.020641 547.87918,370.64354 552.39538,369.01594 C553.16628,368.73644 553.68758,369.12254 554.06198,369.64384 L557.418581,374.621541 C557.895681,375.372941 557.509581,375.892941 556.643781,376.422041 C553.18838,379.022041 550.28678,381.923641 549.06088,385.172341 C548.05598,387.838641 547.91428,390.736341 550.49738,391.710042 C556.996081,394.160542 561.692981,373.378741 575.439182,378.561841 C583.271682,381.516741 585.277582,390.077241 582.512482,397.407942 C580.532582,402.657342 576.354382,407.172242 571.068581,409.079343 C570.296381,409.360143 569.691881,408.941542 569.349981,408.337042 L566.378181,403.599842 C565.899781,402.848442 566.287181,402.328442 567.152981,401.796742 C570.430281,399.417742 572.234681,397.909742 573.334482,394.993842 C574.309482,392.410742 573.615282,389.960241 571.532681,389.176341 C564.867581,386.662141 561.305581,407.967842 546.30878,402.311542" id="Fill-28" fill="#FFFFFF"></path>
                <path d="M557.778941,444.187014 L551.65334,440.911014 C550.94744,440.532714 550.72774,439.809914 551.10604,439.104014 L554.465241,432.821114 L525.642939,417.408313 C524.937039,417.031313 524.717339,416.308513 525.095639,415.601313 L529.379139,407.592012 C529.756139,406.884812 530.480239,406.665112 531.187439,407.043412 L560.008441,422.454913 L563.367641,416.172013 C563.745941,415.464813 564.468741,415.245113 565.174641,415.623413 L571.300241,418.899413 C572.007441,419.277713 572.227141,420.001813 571.848841,420.706413 L568.489641,426.989313 L579.092442,432.659914 C579.798342,433.036914 580.016742,433.759714 579.639742,434.466914 L575.356242,442.477514 C574.977942,443.184714 574.255142,443.403114 573.549242,443.024814 L562.947741,437.355514 L559.587241,443.638414 C559.210241,444.345614 558.486141,444.565314 557.778941,444.187014" id="Fill-30" fill="#FFFFFF"></path>
                <path d="M479.127636,475.907536 L486.039737,468.231036 C486.516837,467.701936 487.012137,467.548536 487.773937,467.635636 L502.527638,470.015936 L498.618537,455.592435 C498.453437,454.843635 498.552237,454.334035 499.030637,453.804935 L505.942738,446.128435 C506.657738,445.334135 507.484538,445.481035 507.728938,446.539235 L513.612738,471.010436 L537.29614,474.122636 C538.37384,474.255236 538.60654,475.062536 537.89024,475.856836 L530.979439,483.532037 C530.502339,484.061137 530.005739,484.214537 529.245239,484.127437 L515.762938,481.934337 L519.352239,495.112437 C519.517339,495.861237 519.418539,496.369537 518.941439,496.899937 L512.030638,504.576438 C511.314338,505.370738 510.487538,505.225138 510.243138,504.164338 L504.675238,480.937236 L479.723036,477.641736 C478.644036,477.507836 478.412636,476.700536 479.127636,475.907536" id="Fill-32" fill="#FFFFFF"></path>
                <path d="M418.013723,529.976879 C417.158323,529.766279 416.835923,529.233279 417.046523,528.377879 C418.915923,520.796279 423.597223,513.908878 430.990324,509.440778 C446.232825,500.228978 465.751026,504.977878 475.008326,520.295779 C484.312427,535.690379 479.442626,555.177381 464.198826,564.389181 C456.807025,568.857281 448.533825,569.799781 440.952224,567.930381 C440.095524,567.719781 439.773124,567.185481 439.983724,566.330081 L441.743924,557.878781 C441.879124,557.070181 442.488824,556.700981 443.298724,556.836181 C448.204925,557.721481 453.226825,557.079281 458.104425,554.13088 C467.400726,548.51228 470.250326,536.69788 464.262526,526.790579 C458.320225,516.958678 446.535725,513.988178 437.238124,519.606779 C432.360524,522.555179 429.457624,526.702179 427.960024,531.457579 C427.703924,532.236279 427.092923,532.605479 426.314223,532.348079 L418.013723,529.976879 Z" id="Fill-34" fill="#FFFFFF"></path>
                <path d="M383.346621,576.581362 L369.93452,537.87516 C369.67062,537.11726 370.00082,536.43736 370.75742,536.17476 L379.004621,533.317359 C379.761221,533.056059 380.357921,533.413559 380.705021,534.141559 L382.644621,538.65386 C384.105821,533.622859 387.292121,529.219759 392.510322,527.412759 C401.766322,524.204359 410.377523,528.383859 414.195623,539.40656 L422.390823,563.052261 C422.652123,563.808861 422.323223,564.488761 421.565323,564.751361 L412.982723,567.725761 C412.226123,567.988361 411.544923,567.658161 411.283623,566.901561 L403.790422,545.27476 C401.427022,538.46016 396.656022,537.47346 392.701422,538.84496 C386.727921,540.91456 385.531921,546.98296 386.552421,549.92876 L394.453822,572.732062 C394.716422,573.489962 394.386222,574.171162 393.629622,574.432462 L385.047021,577.406862 C384.289121,577.669462 383.609221,577.339262 383.346621,576.581362" id="Fill-36" fill="#FFFFFF"></path>
                <path d="M341.387299,582.852952 L342.877099,575.900552 C343.059099,574.874852 343.729899,574.575852 344.652899,574.685052 C345.577199,574.794252 346.689999,574.960652 348.356599,574.666852 C353.793199,573.711352 356.5921,569.061251 355.6678,563.798851 L351.659899,540.99815 C351.522099,540.20775 351.954999,539.59025 352.744099,539.45115 L361.6894,537.87945 C362.4798,537.74035 363.0973,538.17455 363.2364,538.96365 L370.3266,579.305252 C370.4644,580.093052 370.0315,580.713152 369.2424,580.850952 L360.7352,582.344652 C359.9461,582.485052 359.4157,582.035252 359.1882,581.260452 L358.0052,576.588252 C356.4504,581.109652 353.449999,584.619652 348.277299,585.530952 C345.821599,585.962552 343.546599,585.367152 342.133499,584.529952 C341.340499,584.126952 341.232599,583.513352 341.387299,582.852952" id="Fill-38" fill="#FFFFFF"></path>
                <g id="Group-42" transform="translate(302.900017, 542.590430)">
                    <mask id="mask-4" fill="white">
                        <use xlink:href="#path-3"></use>
                    </mask>
                    <g id="Clip-41"></g>
                    <path d="M1.07549006,42.2517824 L3.44409019,35.547682 C3.75609021,34.551882 4.46069025,34.3425819 5.36159029,34.568782 C6.26249034,34.794982 7.3466904,35.101782 9.0366905,35.025082 C14.5525908,34.774182 17.926091,30.5205817 17.682991,25.1814814 L16.6312909,2.05058017 C16.5948909,1.24978012 17.1031909,0.692080093 17.903991,0.655680091 L26.9792915,0.243580068 C27.7800915,0.205880066 28.3377916,0.716780094 28.3741916,1.51628014 L30.2357917,42.4415824 C30.2721917,43.2423824 29.7625916,43.8000825 28.9617916,43.8364825 L20.3323911,44.2290825 C19.5315911,44.2654825 19.062291,43.7519825 18.936191,42.9550824 L18.362891,38.1671822 C16.2399909,42.4532824 12.8144907,45.5511826 7.56509042,45.7903826 C5.07429028,45.9047826 2.89419016,45.0220825 1.60069009,44.0119825 C0.864890048,43.5101824 0.836290046,42.8861824 1.07549006,42.2517824" id="Fill-40" fill="#FFFFFF" mask="url(#mask-4)"></path>
                </g>
                <path d="M288.440246,568.538911 L267.711745,566.399111 C267.992545,572.337511 271.827545,575.956712 276.966445,576.487112 C282.280846,577.035712 286.774946,574.275812 288.440246,568.538911 M261.232544,558.031011 L289.049946,560.902711 C288.385646,555.193111 284.285446,551.54661 277.552745,550.85241 C274.097345,550.49491 271.259445,551.09811 268.028945,552.91161 C267.176145,553.36141 266.644445,553.30681 266.089345,552.62301 L262.583244,548.41231 C262.028144,547.72721 262.091844,547.10711 262.874444,546.47141 C267.467345,542.73651 273.392745,540.84241 279.683445,541.49111 C293.235946,542.89121 301.505247,553.86191 300.216947,566.352311 C298.926046,578.844012 288.600146,587.804912 276.021345,586.506212 C263.441244,585.207512 256.403044,574.453912 257.592544,562.937211 C257.948744,559.481811 258.575344,557.756711 261.232544,558.031011" id="Fill-43" fill="#FFFFFF"></path>
                <path d="M208.139891,552.30542 L215.267792,528.506319 C215.497892,527.740619 216.163492,527.380519 216.930492,527.610619 L225.631392,530.217119 C226.398392,530.447219 226.757192,531.111519 226.528392,531.879819 L220.012792,553.63142 C217.943192,560.539621 220.979992,564.052221 225.074992,565.278121 C231.386493,567.169621 236.152293,561.811021 236.739893,559.849321 L243.586993,536.99012 C243.815793,536.22182 244.481393,535.864319 245.249693,536.093119 L253.949294,538.69962 C254.716294,538.92972 255.075094,539.59532 254.846294,540.36102 L243.092993,579.598922 C242.862893,580.365922 242.198593,580.724722 241.428993,580.494622 L233.071293,577.990822 C232.304293,577.760722 232.029993,577.121122 232.174293,576.328122 L233.469093,570.766721 L233.495093,570.682221 C229.436493,574.300122 224.003792,576.296922 217.948392,574.484722 C209.419092,571.928921 204.793691,563.478921 208.139891,552.30542" id="Fill-45" fill="#FFFFFF"></path>
                <path d="M169.294719,551.75318 L172.271719,545.47808 C172.616219,544.75268 173.32732,544.49918 174.05012,544.84368 L180.48642,547.89608 L194.495221,518.367879 C194.837121,517.645078 195.548221,517.390278 196.273621,517.734778 L204.479221,521.626979 C205.204621,521.971479 205.458121,522.682579 205.114921,523.405379 L191.107421,552.93358 L197.543721,555.987281 C198.267821,556.330481 198.521321,557.041581 198.179421,557.766981 L195.201121,564.042081 C194.857921,564.766181 194.146821,565.019681 193.422721,564.676481 L186.98512,561.624081 L181.83322,572.484281 C181.49002,573.209682 180.77892,573.463182 180.05352,573.119982 L171.847919,569.226481 C171.122519,568.883281 170.869019,568.170881 171.213519,567.446781 L176.36542,556.585281 L169.929119,553.53158 C169.205019,553.18838 168.951519,552.47728 169.294719,551.75318" id="Fill-47" fill="#FFFFFF"></path>
                <path d="M133.835527,474.711666 L141.833128,481.248066 C142.385628,481.700467 142.561128,482.189267 142.511728,482.953667 L140.839928,497.803567 L155.060629,493.209367 C155.800329,493.007867 156.313829,493.084567 156.866329,493.534367 L164.863929,500.072068 C165.692029,500.748068 165.585429,501.581368 164.538929,501.876468 L140.374528,508.925068 L138.402428,532.729369 C138.320528,533.813569 137.526228,534.083969 136.698128,533.406669 L128.700527,526.870269 C128.148027,526.419169 127.971227,525.930369 128.021927,525.165969 L129.568927,511.593968 L116.576726,515.811168 C115.837026,516.012668 115.323526,515.937268 114.771026,515.486168 L106.773426,508.948468 C105.945326,508.272468 106.051926,507.439168 107.098426,507.144068 L130.033027,500.471168 L132.131227,475.388966 C132.211827,474.306066 133.007427,474.034366 133.835527,474.711666" id="Fill-49" fill="#FFFFFF"></path>
                <path d="M26.7657015,431.628884 L77.2434042,399.824382 C77.9220043,399.397982 78.6578043,399.565682 79.0842044,400.242982 L84.1633046,408.305582 C84.5910047,408.982883 84.4246046,409.718683 83.7460046,410.147683 L51.3500028,430.557684 L55.283803,429.448784 L91.8996051,422.586083 C92.6445051,422.432683 93.2776051,422.770683 93.6585052,423.371283 L98.1682054,430.529084 C98.5465054,431.132284 98.5777054,431.849884 98.1175054,432.455684 L76.1683042,462.597485 L73.395404,465.713586 L105.866806,445.254184 C106.544106,444.826484 107.281206,444.994184 107.708906,445.672785 L112.788006,453.734085 C113.214406,454.411385 113.046706,455.148485 112.369406,455.576185 L61.8930034,487.380687 C61.2144034,487.807087 60.4786033,487.639387 60.0509033,486.960787 L54.354303,477.920586 C53.974703,477.318686 53.869403,476.649186 54.252903,476.090186 L84.1074046,434.440784 L33.6986019,443.467984 C33.0291018,443.574584 32.4714018,443.189784 32.0918018,442.587884 L26.3484014,433.470984 C25.9220014,432.793684 26.0884014,432.056584 26.7657015,431.628884" id="Fill-51" fill="#FFFFFF"></path>
                <path d="M28.9201916,378.737601 L36.027292,378.974201 C37.071192,378.969001 37.4832921,379.577401 37.5391921,380.504301 C37.5963921,381.432501 37.6288921,382.558301 38.2125921,384.146901 C40.1170922,389.328701 45.1909925,391.260502 50.2050928,389.418401 L71.939794,381.433801 C72.691194,381.156901 73.376294,381.474101 73.6531941,382.228101 L76.7861942,390.753501 C77.0617942,391.506202 76.7445942,392.192602 75.9918942,392.469502 L37.5404921,406.594002 C36.789092,406.870902 36.102692,406.552402 35.825792,405.799702 L32.8474918,397.691602 C32.5718918,396.940202 32.9189918,396.338302 33.6404919,395.978202 L38.0331921,393.985302 C33.3050918,393.254702 29.3192916,390.925102 27.5057915,385.992901 C26.6477915,383.651601 26.8297915,381.309001 27.4017915,379.769801 C27.6578915,378.917001 28.2428916,378.702501 28.9201916,378.737601" id="Fill-53" fill="#FFFFFF"></path>
                <path d="M40.7724222,332.305758 C35.2578219,333.339258 33.2675218,337.698159 34.4648219,344.087659 L36.433022,354.59036 L53.0613229,351.472959 L51.0931228,340.971559 C49.8958227,334.582058 46.5483226,331.224158 40.7724222,332.305758 M11.2884206,349.972759 L12.9784207,358.98566 L26.5439215,356.44416 L24.8539214,347.429959 C23.9361213,342.527659 21.0696212,339.804159 16.1686209,340.723259 C11.5302206,341.592959 10.3862206,345.158859 11.2884206,349.972759 M39.8377222,320.070158 C51.3908228,317.904357 58.8788232,324.020858 61.7479234,339.336159 L65.6531236,360.16606 C65.8000236,360.95256 65.3736236,361.57656 64.5858236,361.72346 L5.94932033,372.714961 C5.16152028,372.861861 4.53752025,372.43546 4.39062024,371.64896 L0.485420027,350.819059 C-1.7947801,338.653659 4.25022023,331.269658 12.5637207,329.712258 C18.953221,328.514958 24.3898213,330.936858 26.9781215,335.073458 C27.4253215,328.284858 31.8726218,321.562558 39.8377222,320.070158" id="Fill-55" fill="#FFFFFF"></path>
                <path d="M32.1447118,301.722867 L32.4853118,280.885165 C26.5924115,281.679465 23.3190113,285.813466 23.2345113,290.977066 C23.1487113,296.321366 26.2856114,300.558067 32.1447118,301.722867 M40.2606122,273.707865 L39.8069122,301.669567 C45.4372125,300.512567 48.7145127,296.113366 48.8237127,289.345566 C48.8809127,285.873266 48.0359126,283.097766 45.9468125,280.034965 C45.4268125,279.225065 45.4346125,278.690765 46.0690125,278.078465 L49.9612127,274.222665 C50.5930128,273.609065 51.2183128,273.619465 51.9190129,274.342265 C56.0348131,278.597165 58.4372132,284.335366 58.3332132,290.657266 C58.1122132,304.282567 47.8968126,313.468367 35.3414119,313.264267 C22.7873113,313.060167 12.9658107,303.548067 13.1712107,290.904266 C13.3753107,278.259165 23.4815113,270.317465 35.0567119,270.505965 C38.5303121,270.563165 40.3035122,271.037665 40.2606122,273.707865" id="Fill-57" fill="#FFFFFF"></path>
                <path d="M43.1642924,230.535123 C36.701992,229.241623 30.4840917,232.628123 29.1918916,239.090423 C27.9165915,245.464324 31.8789918,251.071224 38.7780921,252.451824 C45.4132925,253.780424 51.2307928,250.130024 52.5060929,243.756123 C53.799593,237.293823 49.7123927,231.845523 43.1642924,230.535123 M25.3698914,215.075522 L65.5372936,223.114722 C66.3224936,223.272022 66.7423937,223.899922 66.5850937,224.687722 L65.0640936,232.284923 C64.9067936,233.068823 64.2957935,233.401623 63.4923935,233.330123 L59.1958933,233.015523 C62.2170934,236.526823 63.8927935,241.313423 62.7227935,247.163424 C60.3099933,259.214424 48.8699927,266.005625 36.646092,263.557725 C24.1595913,261.059124 16.0397909,250.352324 18.451291,238.302623 C19.6043911,232.539723 23.0805913,228.785323 27.6032915,226.602622 L23.3249913,225.292222 C22.5566912,225.047822 22.1211912,224.505722 22.2784912,223.720522 L23.7994913,216.123322 C23.9554913,215.338122 24.5833914,214.918222 25.3698914,215.075522" id="Fill-59" fill="#FFFFFF"></path>
                <path d="M69.2151238,183.20186 C77.0944242,186.28156 78.5101243,196.109561 75.5929242,203.572861 C72.872024,210.539562 67.2677237,214.851662 62.7320235,216.425962 C61.9572234,216.695062 61.4411234,216.302462 61.0719234,215.775962 L57.7764232,210.757962 C57.3071232,210.001362 57.7010232,209.486562 58.5707232,208.966561 C62.0573234,206.409461 64.9940236,203.541661 66.2589236,200.307261 C67.2950237,197.653961 67.4705237,194.758861 64.9004236,193.753961 C58.4316232,191.225461 53.4851229,211.951362 39.8013222,206.601861 C32.0052218,203.554661 30.1020217,194.973361 32.9542218,187.67256 C34.9965219,182.44916 39.2267222,177.98366 44.5372225,176.13896 C45.3120225,175.86856 45.9100225,176.29366 46.2467225,176.90206 L49.1613227,181.67566 C49.6306227,182.43226 49.2380227,182.94836 48.3644227,183.46706 C45.0611225,185.80836 43.2372224,187.29426 42.1023223,190.19716 C41.0974223,192.768561 41.7617223,195.226861 43.8352224,196.036761 C50.4691228,198.630261 54.285923,177.36876 69.2151238,183.20186" id="Fill-61" fill="#FFFFFF"></path>
                <path d="M58.2208932,141.227328 L64.3074935,144.574828 C65.0094936,144.960928 65.2200936,145.686328 64.8339936,146.388328 L61.4006934,152.630928 L90.040995,168.377829 C90.744295,168.765229 90.954895,169.489329 90.568795,170.191329 L86.1916947,178.15123 C85.8055947,178.85323 85.0788947,179.06513 84.3768946,178.67903 L55.7378931,162.932129 L52.3045929,169.174729 C51.9184929,169.876729 51.1930928,170.087329 50.4923928,169.701229 L44.4031924,166.355029 C43.7024924,165.968929 43.4918924,165.243529 43.8779924,164.541529 L47.3099926,158.298929 L36.774792,152.506128 C36.072792,152.120028 35.862192,151.393328 36.248292,150.691328 L40.6253922,142.731428 C41.0114923,142.029428 41.7355923,141.818828 42.4375923,142.204928 L52.9727929,147.997728 L56.4060931,141.753828 C56.7908931,141.051828 57.5175932,140.841228 58.2208932,141.227328" id="Fill-63" fill="#FFFFFF"></path>
                <path d="M137.256868,110.406926 L130.253767,118.002826 C129.771467,118.526727 129.273567,118.671027 128.513067,118.577427 L113.787966,116.024226 L117.528066,130.494527 C117.682766,131.244627 117.578766,131.752927 117.095166,132.276827 L110.093366,139.872728 C109.369266,140.659228 108.543766,140.501928 108.311066,139.441128 L102.713266,114.899726 L79.0662644,111.513226 C77.9885643,111.366326 77.7662643,110.556426 78.4916643,109.772526 L85.4934647,102.175326 C85.9757647,101.652726 86.4749648,101.504526 87.2341648,101.602026 L100.691766,103.952426 L97.2545654,90.731425 C97.0985653,89.980025 97.2025653,89.4717249 97.6874654,88.9491249 L104.687966,81.3519245 C105.413366,80.5680244 106.238866,80.7227244 106.470266,81.7835245 L111.767766,105.076926 L136.682268,108.664926 C137.759968,108.809226 137.980968,109.621726 137.256868,110.406926" id="Fill-65" fill="#FFFFFF"></path>
            </g>
        </g>
    </g>
</svg>