<svg xmlns="http://www.w3.org/2000/svg" width="110" height="20" viewBox="0 0 110 20">
    <g fill="#482A90" fill-rule="evenodd">
        <path d="M54.921 16.956c-3.592 0-6.504-3.09-6.504-6.905 0-3.796 2.912-6.886 6.504-6.886 2.988 0 5.18 1.793 6.013 4.407H59.25c-.719-1.66-2.193-2.862-4.33-2.862-2.703 0-4.916 2.423-4.916 5.341 0 2.919 2.213 5.341 4.916 5.341 1.929 0 3.536-1.106 4.33-2.861h1.683c-.889 2.69-3.196 4.425-6.013 4.425zM69.024 6.904h1.607v5.951c0 2.48-1.777 4.101-4.065 4.101-2.288 0-4.065-1.62-4.065-4.1V6.903h1.588v5.951c0 1.47.964 2.537 2.477 2.537 1.494 0 2.458-1.068 2.458-2.537V6.904zm24.883 6.772c-.68 2.098-2.344 3.28-4.594 3.28-2.798 0-4.992-2.25-4.992-5.13 0-2.843 2.194-5.17 4.897-5.17 2.515 0 4.935 2.098 4.916 5.589h-8.187c.208 2.041 1.759 3.243 3.366 3.243 1.38 0 2.363-.668 2.893-1.812h1.701zm-1.55-2.88c-.397-1.603-1.72-2.671-3.139-2.671-1.342 0-2.76.992-3.176 2.67h6.315zm4.933 5.968h-1.588v-5.97c0-2.48 1.74-4.102 4.065-4.102s4.046 1.622 4.046 4.101v5.971h-1.589v-6.028c0-1.468-.964-2.537-2.457-2.537-1.513 0-2.477 1.069-2.477 2.537v6.028zm12.831-.033c-2.24.264-3.79-1.074-3.79-3.541V8.555h-1.307V7.03h.447c.475 0 .86-.389.86-.868V4.957h1.568V7.03h2.185v1.525h-2.185v4.635c0 1.714 1.046 2.147 2.222 2.072v1.47zM76.958 6.887l.343.037v1.471l-.343-.022c-1.846-.17-3.021.734-3.021 2.596v5.795H72.37v-5.757c0-2.935 2.07-4.422 4.588-4.12zm6.498 0l.342.037v1.471l-.342-.022c-1.847-.17-3.021.734-3.021 2.596v5.795h-1.567v-5.757c0-2.935 2.07-4.422 4.588-4.12zM37.925 14.255c-.938.968-1.891 1.92-2.904 2.803-.953.831-1.969 1.605-3.106 2.141a7.784 7.784 0 0 1-1.409.511 6.066 6.066 0 0 1-1.495.186h-.002c-1.634 0-3.23-.636-4.595-1.59-1.556-1.088-2.844-2.523-4.178-3.885a30.6 30.6 0 0 0-1.437-1.389c-.795-.711-1.647-1.363-2.588-1.858a5.348 5.348 0 0 0-3.172-.553c-.852.122-1.652.491-2.399.915 5.07-5.237 8.942-7.082 12.281-3.93.848.8 3.463 3.379 3.863 3.761 1.397 1.335 2.444 2.209 3.481 2.855 2.494 1.555 4.887 1.65 7.66.033zM5.307 15.627L.103 10.282a.366.366 0 0 1-.004-.504C1.092 8.73 4.887 4.744 6.362 3.38c.334-.308.673-.61 1.023-.9C9.008 1.133 10.985 0 13.188 0c2.035.024 3.942 1.22 5.478 2.498.899.749 1.711 1.617 2.526 2.483-4.307-1.531-9.151 2.537-15.841 10.586a.6.6 0 0 0-.044.06zM26.11 8.9c.236.094.477.174.721.24 1.419.38 2.88.167 4.161-.553.662-.371 1.266-.843 1.832-1.352.576-.519 2.402-2.41 3.07-3.105a.344.344 0 0 1 .496-.001l5.271 5.415a.64.64 0 0 0-.249.159c-4.476 4.61-7.338 5.367-10.472 3.413-.946-.59-1.935-1.415-3.273-2.694-.178-.17-.825-.805-1.557-1.522z"/>
    </g>
</svg>
